<?xml version="1.0" encoding="UTF-8" standalone="no"?>
<!-- Created with Inkscape (http://www.inkscape.org/) -->

<svg
   xmlns:dc="http://purl.org/dc/elements/1.1/"
   xmlns:cc="http://creativecommons.org/ns#"
   xmlns:rdf="http://www.w3.org/1999/02/22-rdf-syntax-ns#"
   xmlns:svg="http://www.w3.org/2000/svg"
   xmlns="http://www.w3.org/2000/svg"
   xmlns:sodipodi="http://sodipodi.sourceforge.net/DTD/sodipodi-0.dtd"
   xmlns:inkscape="http://www.inkscape.org/namespaces/inkscape"
   width="210mm"
   height="297mm"
   viewBox="0 0 210 297"
   version="1.1"
   id="svg8"
   inkscape:version="0.92.3 (2405546, 2018-03-11)"
   sodipodi:docname="tantivy.svg">
  <defs
     id="defs2">
    <clipPath
       id="clipPath4602"
       clipPathUnits="userSpaceOnUse">
      <rect
         style="fill:#a3b7d3;fill-opacity:0.38194448;stroke:none;stroke-width:0.5;stroke-miterlimit:4;stroke-dasharray:none;stroke-opacity:1"
         id="rect4604"
         width="554.00085"
         height="211.73714"
         x="-406.03235"
         y="62.494999"
         ry="0"
         inkscape:export-xdpi="127.60435"
         inkscape:export-ydpi="127.60435" />
    </clipPath>
    <clipPath
       id="clipPath4606"
       clipPathUnits="userSpaceOnUse">
      <rect
         style="fill:#a3b7d3;fill-opacity:0.38194448;stroke:none;stroke-width:0.5;stroke-miterlimit:4;stroke-dasharray:none;stroke-opacity:1"
         id="rect4608"
         width="554.00085"
         height="211.73714"
         x="-406.03235"
         y="62.494999"
         ry="0"
         inkscape:export-xdpi="127.60435"
         inkscape:export-ydpi="127.60435" />
    </clipPath>
    <clipPath
       id="clipPath4618"
       clipPathUnits="userSpaceOnUse">
      <rect
         style="fill:#a3b7d3;fill-opacity:0.38194448;stroke:none;stroke-width:0.5;stroke-miterlimit:4;stroke-dasharray:none;stroke-opacity:1"
         id="rect4620"
         width="554.00085"
         height="211.73714"
         x="-406.03235"
         y="62.494999"
         ry="0"
         inkscape:export-xdpi="127.60435"
         inkscape:export-ydpi="127.60435" />
    </clipPath>
    <clipPath
       id="clipPath4622"
       clipPathUnits="userSpaceOnUse">
      <rect
         style="fill:#a3b7d3;fill-opacity:0.38194448;stroke:none;stroke-width:0.5;stroke-miterlimit:4;stroke-dasharray:none;stroke-opacity:1"
         id="rect4624"
         width="445.32123"
         height="170.20018"
         x="-240.58315"
         y="98.761581"
         ry="0"
         inkscape:export-xdpi="127.60435"
         inkscape:export-ydpi="127.60435" />
    </clipPath>
  </defs>
  <sodipodi:namedview
     id="base"
     pagecolor="#ffffff"
     bordercolor="#666666"
     borderopacity="1.0"
     inkscape:pageopacity="0.0"
     inkscape:pageshadow="2"
     inkscape:zoom="0.35"
     inkscape:cx="-188.57143"
     inkscape:cy="554.28571"
     inkscape:document-units="mm"
     inkscape:current-layer="layer1"
     showgrid="false"
     inkscape:window-width="1853"
     inkscape:window-height="1016"
     inkscape:window-x="67"
     inkscape:window-y="27"
     inkscape:window-maximized="1" />
  <metadata
     id="metadata5">
    <rdf:RDF>
      <cc:Work
         rdf:about="">
        <dc:format>image/svg+xml</dc:format>
        <dc:type
           rdf:resource="http://purl.org/dc/dcmitype/StillImage" />
        <dc:title></dc:title>
      </cc:Work>
    </rdf:RDF>
  </metadata>
  <g
     inkscape:label="Layer 1"
     inkscape:groupmode="layer"
     id="layer1">
    <rect
       style="fill:#a3b7d3;fill-opacity:1;stroke:none;stroke-width:0.5;stroke-miterlimit:4;stroke-dasharray:none;stroke-opacity:1"
       id="rect4197"
       width="554.00085"
       height="211.73714"
       x="-406.03235"
       y="62.494999"
       ry="0"
       inkscape:export-xdpi="127.60435"
       inkscape:export-ydpi="127.60435"
       clip-path="url(#clipPath4618)"
       transform="matrix(0.31234009,0,0,0.51697466,-86.114613,125.56123)"
       mask="none" />
    <path
       mask="none"
       clip-path="none"
       style="opacity:1;fill:#8396b5;fill-opacity:0;fill-rule:evenodd;stroke:none;stroke-width:0.26458332px;stroke-linecap:butt;stroke-linejoin:miter;stroke-opacity:1"
       d="m -4.5943076,318.23125 -126.3342524,-138.4955 -31.02394,12.35381 -5.23836,3.07226 -2.55201,1.53613 -2.14907,-0.38403 -0.67159,0.51204 20.35414,28.19096 c 19.39231,-0.26605 46.78476,92.43677 98.108542,94.16638"
       id="path5064"
       inkscape:connector-curvature="0"
       sodipodi:nodetypes="ccccccccc" />
    <path
       mask="none"
       clip-path="none"
       inkscape:connector-curvature="0"
       id="path5066"
       d="m -142.2617,175.54886 4.97792,5.53102 -6.56809,4.21741 -1.93586,-0.27655 -1.45189,-4.21741 4.35568,-5.04705 z"
       style="opacity:1;fill:#8396b5;fill-opacity:0;fill-rule:evenodd;stroke:none;stroke-width:0.26458332px;stroke-linecap:butt;stroke-linejoin:miter;stroke-opacity:1" />
    <g
       id="layer1-4"
       inkscape:label="Layer 1"
       transform="matrix(0.26458333,0,0,0.26458333,-72.639949,152.09885)" />
    <text
       xml:space="preserve"
       style="font-style:normal;font-weight:normal;font-size:3.17499995px;line-height:0%;font-family:sans-serif;letter-spacing:0px;word-spacing:0px;fill:#000000;fill-opacity:1;stroke:none;stroke-width:0.26458332px;stroke-linecap:butt;stroke-linejoin:miter;stroke-opacity:1"
       x="-101.84521"
       y="196.07504"
       id="text4460"><tspan
         sodipodi:role="line"
         id="tspan4462"
         x="-101.84521"
         y="196.07504"
         style="font-size:10.58333302px;line-height:1.25;stroke-width:0.26458332px"> </tspan></text>
    <path
       style="fill:#464646;fill-opacity:1;fill-rule:evenodd;stroke:none;stroke-width:0;stroke-linecap:butt;stroke-linejoin:miter;stroke-miterlimit:4;stroke-dasharray:none;stroke-opacity:1"
       d="m -144.8949,177.37802 c 1.06497,-0.16423 1.34052,0.27612 1.49196,0.0813 0.15145,-0.1948 0.71737,-1.15613 0.71951,-1.66042 0.002,-0.49144 0.48431,-0.0834 -0.17458,-0.6796 -0.65889,-0.59619 -1.02875,-1.18461 -1.61718,-0.81476 -0.58842,0.36986 -0.80038,1.082 -0.80038,1.082 0,0 0.47512,0.25908 0.36583,0.73822 -0.10928,0.47915 -0.62465,1.7187 -0.62465,1.7187"
       id="path4209"
       inkscape:connector-curvature="0"
       sodipodi:nodetypes="czssscsc"
       mask="none"
       clip-path="none" />
    <path
       sodipodi:nodetypes="ccssccsccssccc"
       inkscape:connector-curvature="0"
       id="path4467"
       d="m -147.86221,179.98178 c -0.0269,-0.0108 -0.0419,-0.014 -0.0419,-0.014 -0.48546,0.80102 -1.37853,0.32992 -1.52012,1.30865 -0.126,0.87102 0.78626,1.91411 1.08798,2.81802 0.30172,0.90392 -0.038,2.01032 0.23833,2.42711 0.0837,0.17475 0.18096,0.40784 0.28666,0.63937 -0.97452,0.65294 -0.8381,0.91993 -0.55556,1.57273 0.47506,1.09759 2.32634,0.41958 2.32634,0.41958 l -1.51109,-1.44843 c 0.55809,-0.27642 1.4934,0.2093 1.54129,-0.59363 0.0863,-1.44628 -0.13306,-2.43548 -0.41067,-3.60845 -0.27761,-1.17297 -0.0861,-0.2859 -0.22018,-1.22731 -0.26279,-1.80647 -1.03268,-2.21875 -1.22108,-2.29356 z"
       style="fill:#464646;fill-opacity:1;fill-rule:evenodd;stroke:#ffffff;stroke-width:0.12209817;stroke-linecap:butt;stroke-linejoin:miter;stroke-miterlimit:4;stroke-dasharray:none;stroke-opacity:1"
       mask="none"
       clip-path="none" />
    <path
       style="fill:#464646;fill-opacity:1;fill-rule:evenodd;stroke:none;stroke-width:0;stroke-linecap:butt;stroke-linejoin:miter;stroke-miterlimit:4;stroke-dasharray:none;stroke-opacity:1"
       d="m -171.6612,196.12438 c -0.59102,0.4662 -0.90271,0.80034 -0.2257,0.7221 0.67701,-0.0782 0.10411,-0.28644 0.6796,-0.17457 0.57548,0.11187 1.82022,0.43455 1.82022,0.43455 0,0 4.40284,-2.38855 4.7934,-2.57089 0.39056,-0.18234 0.89817,-1.13286 0.38538,0.0103 -0.51278,1.14321 -2.08166,5.68777 -2.08166,5.68777 0.33069,0.099 0.41249,0.62822 0.477,0.78292 -0.0437,0.1538 -0.21677,0.10932 0.0699,0.32191 0.48487,0.35956 0.66609,0.0479 0.55691,-0.21016 -0.10917,-0.25802 -0.85621,-0.54792 -0.20189,-1.83406 0.44235,-0.86949 1.24117,-2.69402 1.54186,-3.11982 2.59579,-1.26261 3.40227,-3.47921 7.50017,-4.32876 1.94245,-0.52632 2.75583,-1.35331 2.75583,-1.35331 0,0 -0.763,-0.30974 0,0 0.76301,0.30974 3.87621,1.42209 5.35727,1.72397 1.64062,0.33441 6.06649,0.1255 6.06649,0.1255 0,0 0.0129,-0.48172 0.0834,0.48432 0.0705,0.96605 0.32056,3.02786 0.21364,3.63954 -0.0399,0.2283 -0.15668,0.269 -0.16962,0.75073 -0.0129,0.48173 -0.048,0.42855 0.40236,1.91611 0.15656,0.51713 0.0871,2.24704 0.0871,2.24704 l 0.28386,0.20045 c 0.49793,0.35162 0.58874,0.29726 0.65158,0.56587 0.5317,0.3992 0.70664,0.27481 1.18203,-0.024 0,0 -0.088,-0.19068 -0.38141,-0.46099 -0.6098,-0.56174 -0.8697,0.0731 -1.11475,-1.57258 -0.24505,-1.64565 -0.18812,-3.76526 -0.18812,-3.76526 0,0 -0.21857,0.95829 0.20822,-0.57289 0.42679,-1.53119 0.94215,-2.77075 0.94215,-2.77075 0,0 -1.04945,-0.41384 0.003,-0.0963 1.05204,0.3175 2.0155,0.34338 3.16389,0.66347 1.14839,0.32009 2.95826,1.14002 2.95826,1.14002 0,0 -0.75783,-0.50243 0.36985,0.58843 1.12769,1.09086 3.30234,3.48462 3.29199,3.87 -0.0104,0.38539 0,0 0.15378,0.65765 l 0.98416,-0.74489 c -0.63181,-0.90152 -3.02389,-3.64887 -4.10725,-5.02749 -1.79952,-1.20532 -4.46097,-2.62662 -4.46097,-2.62662 0,0 -0.59102,0.4662 0.003,-0.0963 0.5936,-0.56254 0.77595,-0.17199 0.80182,-1.13544 0.0259,-0.96346 0.6376,-2.20043 0.6376,-2.20043 0.70807,-0.57933 1.53776,-1.72806 2.21921,-2.23726 0.68146,-0.5092 1.65373,-0.67861 1.95117,0.23668 0.34736,1.06896 1.34203,1.37731 1.89941,2.1636 0.55737,0.7863 0.17716,0.58325 0.45585,0.9764 0.36874,0.48866 1.13168,0.3793 1.49755,0.20726 0.36588,-0.17204 0.63526,-0.45792 0.76044,-0.81117 0.12517,-0.35325 0.0478,-0.63894 -0.22242,-1.14743 -0.46307,-1.77152 -1.21152,-3.87147 -1.72964,-5.27867 -1.35381,-1.96692 -2.44044,-1.54105 -3.45291,-1.44265 -1.93498,0.0455 -0.47618,-0.30214 -2.99189,0.11247 -0.88549,0.13154 -1.7403,0.43376 -2.46359,0.3749 -0.11045,0.52907 -0.50702,0.84412 -1.34048,1.25841 -1.1253,0.55935 1.07427,0.38664 -1.33697,0.41829 -2.41123,0.0316 -1.46483,-0.2043 -2.73544,0.43648 -1.27061,0.64078 -2.00643,0.57792 -2.5097,0.81315 -0.50326,0.23523 0.27959,0.0896 -0.58842,0.36986 -0.86801,0.28025 0.36421,0.0934 -1.6694,0.42442 -2.03362,0.33104 -2.43394,0.27514 -3.96771,-0.0553 -1.331,-0.45568 -1.45957,-0.64389 -3.44316,-0.43299 -3.7692,0.60911 -2.81057,0.3097 -4.24698,0.17518 -2.88521,-0.27033 -2.2082,-0.34856 -3.94242,-0.39514 -2.32132,0.35819 -1.32553,-0.24636 -3.80997,-0.48799 -0.0118,0.51663 -0.0289,0.58836 0.11777,1.54581 0.32953,2.15185 0.9036,1.95458 1.31077,1.76649 0.52667,-0.24331 2.57231,-0.72319 2.57231,-0.72319 1.05858,0.54153 2.49039,-0.82133 4.22334,-0.85491 1.59147,-0.0882 -0.4648,0.95977 -1.05885,1.73985 -0.59404,0.78009 -0.98897,2.40511 -1.02893,3.72909 -0.74115,0.82236 -2.29111,2.02058 -3.01674,2.2746 -0.55183,0.19317 -0.68691,0.81167 -1.26376,1.23958 -1.81128,1.0971 -3.00695,2.17143 -3.19705,2.0699 -0.1901,-0.10152 -2.48493,-0.31283 -2.48493,-0.31283 z"
       id="use4357"
       inkscape:connector-curvature="0"
       sodipodi:nodetypes="csscssccszscccsscsssscsccsscscsscssccccssczssczzcccccssszzscccccsscczcscccc"
       mask="none"
       clip-path="none" />
    <path
       style="fill:#ffffff;fill-opacity:1;fill-rule:evenodd;stroke:#ffffff;stroke-width:0.12209817;stroke-linecap:butt;stroke-linejoin:miter;stroke-miterlimit:4;stroke-dasharray:none;stroke-opacity:1"
       d="m -148.3678,180.09555 c -0.0289,-0.001 -0.0442,5.3e-4 -0.0442,5.3e-4 -0.19474,0.91618 -1.19311,0.7653 -1.00464,1.7361 0.16773,0.86395 1.37251,1.54863 1.95495,2.30285 0.58246,0.75422 0.62585,1.9108 1.02399,2.21339 0.1366,0.13745 0.30512,0.32555 0.48114,0.50938 -0.70529,0.93733 -0.48858,1.14454 -0.007,1.66795 0.80987,0.88006 2.3348,-0.36956 2.3348,-0.36956 l -1.90365,-0.8703 c 0.43599,-0.44472 1.47907,-0.29394 1.25998,-1.0679 -0.39462,-1.39406 -0.92732,-2.25595 -1.57557,-3.27217 -0.64824,-1.01622 -0.17542,-0.24162 -0.6119,-1.08644 -0.84278,-1.61929 -1.70547,-1.75517 -1.908,-1.76379 z"
       id="path4205"
       inkscape:connector-curvature="0"
       sodipodi:nodetypes="ccssccsccssccc"
       mask="none"
       clip-path="none" />
    <path
       style="fill:#464646;fill-opacity:1;fill-rule:evenodd;stroke:none;stroke-width:0;stroke-linecap:butt;stroke-linejoin:miter;stroke-miterlimit:4;stroke-dasharray:none;stroke-opacity:1"
       d="m -144.95238,176.39299 c -2.16619,1.6773 -3.99608,2.31085 -4.46579,4.12227 -0.35721,1.25816 1.08522,1.19462 2.2444,1.25617 l 0.8427,0.43843 c 0,0 0.0724,-0.25986 0.37179,-0.63748 0.29939,-0.37762 0.0989,-0.0938 0.7003,-0.94535 0.60136,-0.85158 1.36455,-1.56181 1.37392,-2.63933 0.0117,-1.35007 -1.06737,-1.59471 -1.06737,-1.59471 z"
       id="path4207"
       inkscape:connector-curvature="0"
       sodipodi:nodetypes="ccccssscc"
       mask="none"
       clip-path="none" />
    <path
       style="fill:#464646;fill-opacity:1;fill-rule:evenodd;stroke:none;stroke-width:0;stroke-linecap:butt;stroke-linejoin:miter;stroke-miterlimit:4;stroke-dasharray:none;stroke-opacity:1"
       d="m -144.98642,179.03933 c 1.68556,1.9882 4.08938,3.89343 4.08938,3.89343 l 2.13834,0.36421 -0.27372,-1.23447 c 0,0 -1.32608,-0.13787 -1.82619,-0.56034 -0.50011,-0.42247 -2.09992,-1.79481 -2.98969,-2.94356 -0.88977,-1.14875 -1.61901,-0.65704 -1.61901,-0.65704 z"
       id="path4215"
       inkscape:connector-curvature="0"
       mask="none"
       clip-path="none" />
    <path
       style="fill:#464646;fill-opacity:1;fill-rule:evenodd;stroke:none;stroke-width:0;stroke-linecap:butt;stroke-linejoin:miter;stroke-miterlimit:4;stroke-dasharray:none;stroke-opacity:1"
       d="m -143.0821,175.65174 c 0.67184,0.11446 0.96864,-0.16681 0.96864,-0.16681 l -0.86194,-0.21599"
       id="path4217"
       inkscape:connector-curvature="0"
       mask="none"
       clip-path="none" />
    <path
       sodipodi:nodetypes="cszcccc"
       style="fill:#414141;fill-opacity:1;fill-rule:evenodd;stroke:none;stroke-width:0;stroke-linecap:butt;stroke-linejoin:miter;stroke-miterlimit:4;stroke-dasharray:none;stroke-opacity:1"
       d="m -131.61201,180.69306 c 0.78124,-0.8215 1.05393,-0.84444 1.53074,-1.02052 0.85548,-0.31591 1.63622,-0.31515 1.18749,0.23755 -0.44873,0.55269 -0.64726,1.2018 -0.64726,1.2018 l -0.10633,0.91319 -1.14597,0.47357 -0.78791,-1.40098"
       id="path4331"
       inkscape:connector-curvature="0"
       mask="none"
       clip-path="none" />
    <path
       mask="none"
       clip-path="none"
       sodipodi:nodetypes="cccccccccccccccccccccccccccccccccccccc"
       inkscape:connector-curvature="0"
       id="path5062"
       d="m -174.37102,214.57067 66.54608,103.56404 63.731656,0.95205 -71.893776,-112.77408 -2.69262,-0.19233 h -1.53865 l 1.53865,2.30797 -0.636,2.27028 -2.84935,-4.44802 c 0,0 -4.14227,0.1229 -8.43914,0.0621 l 0.38467,2.30797 -1.92331,5.38525 -4.03894,-7.50089 h -2.11563 l -3.26962,0.19233 h -0.57699 l 1.34631,2.5003 v 1.9233 l -2.69262,-4.61593 -5.96224,-0.38466 1.34631,3.65428 -1.34631,0.57699 -2.69263,-3.65428 h -3.46194 l -2.5003,0.96165 -0.57699,-1.15398 h -1.15398 l 0.96165,2.30797 v 4.23126 l -4.23127,-6.53923 -2.50029,-0.19233 -3.26962,0.96165 -0.76932,0.76933 -0.96165,-1.53865 -3.46195,-0.19233 -2.11563,0.19233 1.35853,2.81271 z"
       style="opacity:1;fill:#8396b5;fill-opacity:1;fill-rule:evenodd;stroke:none;stroke-width:0.26458332px;stroke-linecap:butt;stroke-linejoin:miter;stroke-opacity:1" />
    <g
       id="g4485"
       transform="matrix(0.40221556,0,0,0.40221556,-88.31345,118.73598)"
       style="fill:#ffffff;fill-opacity:1;stroke:none;stroke-opacity:1"
       inkscape:export-xdpi="127.60435"
       inkscape:export-ydpi="127.60435"
       clip-path="none"
       mask="none">
      <text
         id="text4361"
         y="240.40523"
         x="-210.35233"
         style="font-style:normal;font-variant:normal;font-weight:normal;font-stretch:normal;line-height:0%;font-family:'Plantagenet Cherokee';-inkscape-font-specification:'Plantagenet Cherokee, Normal';text-align:start;letter-spacing:-1.32000005px;word-spacing:0px;writing-mode:lr-tb;text-anchor:start;fill:#ffffff;fill-opacity:1;stroke:none;stroke-width:1px;stroke-linecap:butt;stroke-linejoin:miter;stroke-opacity:1"
         xml:space="preserve"><tspan
           dx="-10.02 0 -0.12 0.12 1 -1"
           y="240.40523"
           x="-210.35233"
           id="tspan4363"
           sodipodi:role="line"
           style="font-size:52.26499939px;line-height:1.25">ta<tspan
   id="tspan4456"
   style="letter-spacing:-2px;fill:#ffffff;fill-opacity:1;stroke:none;stroke-opacity:1">n</tspan><tspan
   dx="-1"
   id="tspan4184"
   style="letter-spacing:-1.39999998px;word-spacing:-1px;fill:#ffffff;fill-opacity:1;stroke:none;stroke-opacity:1">t</tspan><tspan
   id="tspan4458"
   style="letter-spacing:-2px;fill:#ffffff;fill-opacity:1;stroke:none;stroke-opacity:1">i</tspan><tspan
   id="tspan4182"
   style="letter-spacing:0px;fill:#ffffff;fill-opacity:1;stroke:none;stroke-opacity:1">vy</tspan></tspan></text>
    </g>
  </g>
</svg>
